# AST/ASF file generated using VICON BodyLanguage
# -----------------------------------------------
:version 1.10
:name VICON
:units
  mass 1.0
  length 0.45
  angle deg
:documentation
   .ast/.asf automatically generated from VICON data using
   VICON BodyBuilder and BodyLanguage model FoxedUp or BRILLIANT.MOD
:root
   order TX TY TZ RX RY RZ
   axis XYZ
   position 0 0 0  
   orientation 0 0 0 
:bonedata
  begin
     id 1 
     name lhipjoint
     direction 0.624716 -0.669793 0.401383 
     length 2.38238 
     axis 0 0 0  XYZ
  end
  begin
     id 2 
     name lfemur
     direction 0.34202 -0.939693 0  
     length 6.4574  
     axis 0 0 20  XYZ
    dof rx ry rz
    limits (-160.0 20.0)
           (-70.0 70.0)
           (-60.0 70.0)
  end
  begin
     id 3 
     name ltibia
     direction 0.34202 -0.939693 0   
     length 7.68739   
     axis 0 0 20   XYZ
    dof rx
    limits (-10.0 170.0)
  end
  begin
     id 4 
     name lfoot
     direction 0.0681309 -0.187188 0.979959   
     length 2.46615   
     axis -90 7.62852e-016 20   XYZ
    dof rx rz
    limits (-45.0 90.0)
           (-70.0 20.0)
  end
  begin
     id 5 
     name ltoes
     direction 1.53566e-011 -4.21819e-011 1   
     length 1.2376   
     axis -90 7.62852e-016 20   XYZ
    dof rx
    limits (-90.0 20.0)
  end
  begin
     id 6 
     name rhipjoint
     direction -0.644473 -0.655875 0.393043   
     length 2.43293  
     axis 0 0 0  XYZ 
  end
  begin
     id 7 
     name rfemur
     direction -0.34202 -0.939693 0   
     length 6.7025   
     axis 0 0 -20   XYZ
    dof rx ry rz
    limits (-160.0 20.0)
           (-70.0 70.0)
           (-70.0 60.0)
  end
  begin
     id 8 
     name rtibia
     direction -0.34202 -0.939693 0   
     length 7.80547   
     axis 0 0 -20   XYZ
    dof rx
    limits (-10.0 170.0)
 end
 begin
     id 9 
     name rfoot
     direction -0.0756734 -0.207911 0.975216   
     length 2.40315  
     axis -90 -7.62852e-016 -20   XYZ
    dof rx rz
    limits (-45.0 90.0)
           (-20.0 70.0)
  end
  begin
     id 10 
     name rtoes
     direction -1.5353e-011 -4.21879e-011 1   
     length 1.20477   
     axis -90 -7.62852e-016 -20   XYZ
    dof rx
    limits (-90.0 20.0)
  end
  begin
     id 11 
     name lowerback
     direction 0.0160353 0.987463 -0.157037   
     length 2.18572   
     axis 0 0 0   XYZ
    dof rx ry rz
    limits (-20.0 45.0)
           (-30.0 30.0)
           (-30.0 30.0)
  end
  begin
     id 12 
     name upperback
     direction -0.00499661 0.999756 0.0215076   
     length 2.18016   
     axis 0 0 0   XYZ
    dof rx ry rz
    limits (-20.0 45.0)
           (-30.0 30.0)
           (-30.0 30.0)
  end
  begin
     id 13 
     name thorax
     direction -0.00921346 0.995333 0.0960619   
     length 2.24923   
     axis 0 0 0   XYZ
    dof rx ry rz
    limits (-20.0 45.0)
           (-30.0 30.0)
           (-30.0 30.0)
  end
  begin
     id 14 
     name lowerneck
     direction 0.0274184 0.991181 0.12965   
     length 1.70911   
     axis 0 0 0   XYZ
    dof rx ry rz
    limits (-20.0 45.0)
           (-30.0 30.0)
           (-30.0 30.0)
  end
  begin
     id 15 
     name upperneck
     direction 0.0015627 0.999959 -0.00893559   
     length 1.69312   
     axis 0 0 0   XYZ
    dof rx ry rz
    limits (-20.0 45.0)
           (-30.0 30.0)
           (-30.0 30.0)
  end
  begin
     id 16
     name head
     direction -0.00230242 0.999856 -0.0168327  
     length 1.80241  
     axis 0 0 0   XYZ
    dof rx ry rz
    limits (-20.0 45.0)
           (-30.0 30.0)
           (-30.0 30.0)
  end
  begin
     id 17 
     name lclavicle
     direction 0.955523 0.290741 -0.0494489  
     length 3.84275  
     axis 0 0 0   XYZ
    dof ry rz
    limits (-20.0 10.0)
           (0.0 20.0)
  end
  begin
     id 18 
     name lhumerus
     direction 1 -4.48967e-011 -3.18382e-028   
     length 5.17714   
     axis 180 -30 -90   XYZ
    dof rx ry rz
    limits (-60.0 90.0)
           (-90.0 90.0)
           (-90.0 90.0)
  end
  begin
     id 19
     name lradius
     direction 1 -4.48968e-011 -2.22911e-027   
     length 3.43679   
     axis 180 -30 -90   XYZ
    dof rx
    limits (-10.0 170.0)
  end
  begin
     id 20
     name lwrist
     direction 1 -4.48951e-011 -6.32245e-027   
     length 1.7184   
     axis 3.57107e-015 90 90   XYZ
    dof ry
    limits (-180.0 0.0)
 end
  begin
     id 21 
     name lhand
     direction 1 -4.48924e-011 -1.26431e-026   
     length 0.573117   
     axis 8.06912e-015 90 90   XYZ
    dof rx rz
    limits (-90.0 90.0)
           (-45.0 45.0)
  end
  begin
     id 22 
     name lfingers
     direction 1 -4.49001e-011 -2.52965e-026   
     length 0.462062   
     axis 1.61381e-014 90 90   XYZ
    dof rx
    limits (0.0 90.0)
  end
  begin
     id 23
     name lthumb
     direction 0.707107 -6.35008e-011 0.707107   
     length 0.663431   
     axis -90 45 -1.62303e-014   XYZ
    dof rx rz
    limits (-45.0 45.0)
           (-45.0 45.0)
  end
  begin
     id 24 
     name rclavicle
     direction -0.963917 0.256881 -0.0698287   
     length 3.73057  
     axis 0 0 0   XYZ 
    dof ry rz
    limits (-10.0 20.0)
           (-20.0 0.0)
  end
  begin
     id 25 
     name rhumerus
     direction -1 -4.48962e-011 -2.73982e-027  
     length 5.23908   
     axis 180 30 90   XYZ
    dof rx ry rz
    limits (-90.0 60.0)
           (-90.0 90.0)
           (-90.0 90.0)
  end
  begin
     id 26 
     name rradius
     direction -1 -4.48968e-011 -4.33218e-027   
     length 3.46485   
     axis 180 30 90   XYZ
    dof rx
    limits (-10.0 170.0)
  end
  begin
     id 27 
     name rwrist
     direction -1 -4.48989e-011 -6.32372e-027   
     length 1.73243   
     axis 3.57107e-015 -90 -90   XYZ
    dof ry
    limits (-180.0 0.0)
  end
  begin
     id 28
     name rhand
     direction -1 -4.48948e-011 -1.26448e-026   
     length 0.608752   
     axis 8.06912e-015 -90 -90   XYZ
    dof rx rz
    limits (-90.0 90.0)
           (-45.0 45.0)
  end
  begin
     id 29
     name rfingers
     direction -1 -4.48962e-011 -2.52913e-026   
     length 0.490792   
     axis 1.61381e-014 -90 -90   XYZ
    dof rx
    limits (0.0 90.0)
  end
  begin
     id 30
     name rthumb
     direction -0.707107 -6.34878e-011 0.707107   
     length 0.704682   
     axis -90 -45 1.62303e-014   XYZ
    dof rx rz
    limits (-45.0 45.0)
           (-45.0 45.0)
  end
:hierarchy
  begin
    root lhipjoint rhipjoint lowerback
    lhipjoint lfemur
    lfemur ltibia
    ltibia lfoot
    lfoot ltoes
    rhipjoint rfemur
    rfemur rtibia
    rtibia rfoot
    rfoot rtoes
    lowerback upperback
    upperback thorax
    thorax lowerneck lclavicle rclavicle
    lowerneck upperneck
    upperneck head
    lclavicle lhumerus
    lhumerus lradius
    lradius lwrist
    lwrist lhand lthumb
    lhand lfingers
    rclavicle rhumerus
    rhumerus rradius
    rradius rwrist
    rwrist rhand rthumb
    rhand rfingers
  end

#!OML:ASF G:\JayActor3\Patient Classification 1\Patient 1\Session 6\male.ASF
:FULLY-SPECIFIED
:DEGREES
197
root 6.49237 16.5355 -3.21332 211.613 -84.2498 -216.143
lowerback 8.56115 0.705984 -1.29257
upperback 1.51163 0.7121 -1.50908
thorax -3.23011 0.337609 -0.912377
lowerneck 7.91805 -0.984585 -1.17763
upperneck -37.6831 0.840665 13.7361
head -14.3183 -2.03349 6.0376
rclavicle 1.14953e-014 1.3418e-014
rhumerus -9.3219 -54.2441 -28.7108
rradius 61.6202
rwrist -80.5966
rhand -27.9626 -20.1779
rfingers 7.12502
rthumb -1.34974 -50.1534
lclavicle 1.14953e-014 1.3418e-014
lhumerus 8.25874 54.8906 38.5674
lradius 67.1812
lwrist 114.463
lhand -33.8243 14.6211
lfingers 7.12502
lthumb -7.01 44.485
rfemur -43.6095 -16.5978 7.10304
rtibia 83.3814
rfoot 14.8825 -2.5953
rtoes 9.13526
lfemur 12.5293 15.3964 -23.9967
ltibia 6.36111e-015
lfoot -8.86866 5.09161
ltoes -0.43344
198
root 6.48128 16.5411 -3.19147 211.409 -84.1235 -215.993
lowerback 8.55758 0.7445 -1.13185
upperback 1.51027 0.775136 -1.576
thorax -3.22604 0.366858 -1.07899
lowerneck 7.91579 -1.06811 -1.27702
upperneck -37.5117 0.813143 14.1075
head -14.2342 -2.07253 6.20077
rclavicle 2.75084e-014 -1.25234e-014
rhumerus -10.4455 -53.6409 -28.3086
rradius 63.5785
rwrist -82.6214
rhand -25.7668 -18.7398
rfingers 7.12502
rthumb 0.771003 -48.7181
lclavicle 2.75084e-014 -1.25234e-014
lhumerus 8.15895 54.5516 39.186
lradius 69.2262
lwrist 115.624
lhand -32.593 14.5353
lfingers 7.12502
lthumb -5.8213 44.4354
rfemur -44.3165 -17.0112 6.94968
rtibia 84.3023
rfoot 15.4154 -2.37052
rtoes 9.40085
lfemur 12.6274 15.5714 -24.1043
ltibia -2.54444e-014
lfoot -8.92395 5.04644
ltoes -0.341522
199
root 6.47064 16.5427 -3.1692 211.984 -84.005 -216.655
lowerback 8.58242 0.759478 -1.00665
upperback 1.51766 0.80174 -1.66311
thorax -3.22894 0.377978 -1.24284
lowerneck 7.85031 -1.12244 -1.46954
upperneck -37.1975 0.834201 14.568
head -14.0735 -2.08121 6.39416
rclavicle -1.72849e-015 -1.56543e-014
rhumerus -11.3652 -52.6568 -28.1493
rradius 65.6463
rwrist -83.5303
rhand -24.2866 -17.2445
rfingers 7.12502
rthumb 2.20052 -47.2129
lclavicle -1.72849e-015 -1.56543e-014
lhumerus 7.92375 54.1642 39.6459
lradius 71.2688
lwrist 116.594
lhand -30.6604 14.8575
lfingers 7.12502
lthumb -3.95523 44.8006
rfemur -44.9246 -17.4377 6.69188
rtibia 85.151
rfoot 16.054 -2.12249
rtoes 9.61797
lfemur 12.7541 15.6992 -24.2782
ltibia 9.54166e-015
lfoot -8.95971 4.99692
ltoes -0.282695
200
root 6.46018 16.5441 -3.1488 211.235 -83.8375 -215.969
lowerback 8.55316 0.798941 -0.833554
upperback 1.54255 0.868716 -1.70895
thorax -3.18261 0.409144 -1.39435
lowerneck 7.73799 -1.16371 -1.689
upperneck -36.812 0.865788 15.0364
head -13.8711 -2.07862 6.58348
rclavicle 2.23788e-015 6.75868e-015
rhumerus -12.1452 -51.7188 -28.0445
rradius 67.647
rwrist -84.5873
rhand -22.2483 -16.0339
rfingers 7.12502
rthumb 4.16897 -45.9729
lclavicle 2.23788e-015 6.75868e-015
lhumerus 7.7127 53.788 40.1205
lradius 73.2228
lwrist 117.604
lhand -28.5261 15.6435
lfingers 7.12502
lthumb -1.894 45.6148
rfemur -45.5299 -17.6461 6.57348
rtibia 85.899
rfoot 16.7344 -1.981
rtoes 9.87006
lfemur 12.8699 15.9376 -24.3389
ltibia -2.22639e-014
lfoot -8.99544 4.92582
ltoes -0.263141
201
root 6.44844 16.543 -3.13028 211.84 -83.6942 -216.667
lowerback 8.56544 0.816166 -0.737518
upperback 1.53927 0.895524 -1.80479
thorax -3.18932 0.420698 -1.55087
lowerneck 7.61553 -1.20313 -2.04621
upperneck -36.2247 0.918392 15.6625
head -13.5779 -2.05634 6.83781
rclavicle 5.10318e-015 1.17283e-014
rhumerus -12.9628 -50.7197 -27.9163
rradius 69.6124
rwrist -85.4983
rhand -20.0637 -14.8321
rfingers 7.12502
rthumb 6.27835 -44.7191
lclavicle 5.10318e-015 1.17283e-014
lhumerus 7.3548 53.1425 40.4293
lradius 75.2315
lwrist 118.558
lhand -26.467 15.7062
lfingers 7.12502
lthumb 0.0946577 45.6859
rfemur -46.0162 -17.8947 6.28312
rtibia 86.5765
rfoot 17.408 -1.8826
rtoes 10.2282
lfemur 12.9987 16.0813 -24.5131
ltibia -4.29375e-014
lfoot -9.01717 4.86172
ltoes -0.311431
202
root 6.43784 16.5399 -3.11441 211.492 -83.5393 -216.389
lowerback 8.528 0.858557 -0.604372
upperback 1.55464 0.96242 -1.85862
thorax -3.14797 0.452349 -1.68809
lowerneck 7.60747 -1.25943 -2.20809
upperneck -35.807 0.938388 16.1235
head -13.39 -2.06403 7.01276
rclavicle -1.30204e-014 2.08724e-015
rhumerus -13.7107 -49.6602 -27.8196
rradius 71.5766
rwrist -86.247
rhand -17.5772 -13.6737
rfingers 7.12502
rthumb 8.67838 -43.4753
lclavicle -1.30204e-014 2.08724e-015
lhumerus 7.13098 52.5643 40.8523
lradius 77.2043
lwrist 119.206
lhand -24.3678 15.9421
lfingers 7.12502
lthumb 2.12219 45.9113
rfemur -46.4805 -17.9628 6.11892
rtibia 87.1497
rfoot 17.9844 -1.87355
rtoes 10.4158
lfemur 13.1103 16.2849 -24.5836
ltibia 6.20208e-014
lfoot -9.04533 4.78548
ltoes -0.35464
203
root 6.42169 16.5341 -3.10206 211.812 -83.38 -216.825
lowerback 8.44939 0.891173 -0.560879
upperback 1.60033 1.00806 -1.92471
thorax -3.05388 0.47415 -1.78388
lowerneck 7.63735 -1.36399 -2.25508
upperneck -35.3711 0.874473 16.4642
head -13.1937 -2.10765 7.12136
rclavicle -4.74443e-015 -2.13694e-015
rhumerus -14.3518 -48.4881 -27.7857
rradius 73.4597
rwrist -86.9348
rhand -14.5865 -12.8254
rfingers 7.12502
rthumb 11.5635 -42.4864
lclavicle -4.74443e-015 -2.13694e-015
lhumerus 6.82343 51.856 41.1943
lradius 79.2059
lwrist 119.745
lhand -22.0654 16.4194
lfingers 7.12502
lthumb 4.34562 46.3548
rfemur -46.7871 -18.0407 5.8347
rtibia 87.6324
rfoot 18.4805 -1.78235
rtoes 10.3734
lfemur 13.2705 16.4518 -24.7017
ltibia 4.77083e-015
lfoot -9.06059 4.68942
ltoes -0.364035
204
root 6.40743 16.5267 -3.08797 213.165 -83.1957 -218.258
lowerback 8.36195 0.906207 -0.590124
upperback 1.62151 1.02214 -2.02937
thorax -2.98158 0.480638 -1.87533
lowerneck 7.6319 -1.41839 -2.38339
upperneck -34.8276 0.88858 16.8993
head -12.9549 -2.11154 7.26246
rclavicle 9.54788e-015 1.60519e-014
rhumerus -14.9364 -47.1863 -27.7703
rradius 75.3741
rwrist -87.5397
rhand -12.1188 -11.74
rfingers 7.12502
rthumb 13.9425 -41.2525
lclavicle 9.54788e-015 1.60519e-014
lhumerus 6.39998 50.9947 41.4019
lradius 81.1373
lwrist 120.422
lhand -19.4109 16.3924
lfingers 7.12502
lthumb 6.90849 46.2596
rfemur -47.0555 -18.1594 5.39153
rtibia 87.9827
rfoot 18.9359 -1.68695
rtoes 10.561
lfemur 13.3839 16.5756 -24.9683
ltibia -2.22639e-014
lfoot -9.07625 4.59454
ltoes -0.391194
205
root 6.39291 16.5211 -3.07587 213.55 -83.0831 -218.723
lowerback 8.26083 0.915625 -0.503274
upperback 1.65474 1.04197 -2.08759
thorax -2.88774 0.489713 -1.98412
lowerneck 7.74905 -1.45504 -2.61598
upperneck -34.3787 0.937989 17.4277
head -12.7922 -2.10473 7.47599
rclavicle -1.08804e-014 -6.95746e-016
rhumerus -15.4878 -45.9962 -27.6964
rradius 77.1783
rwrist -87.9831
rhand -8.95635 -11.527
rfingers 7.12502
rthumb 16.9885 -40.8041
lclavicle -1.08804e-014 -6.95746e-016
lhumerus 6.04139 50.1666 41.6942
lradius 83.0957
lwrist 120.807
lhand -16.9528 16.7236
lfingers 7.12502
lthumb 9.28089 46.4993
rfemur -47.2009 -18.0445 5.10249
rtibia 88.198
rfoot 19.2544 -1.69791
rtoes 10.5556
lfemur 13.5189 16.6941 -25.0757
ltibia 3.49861e-014
lfoot -9.11422 4.47255
ltoes -0.269143
206
root 6.37596 16.5149 -3.06516 213.88 -82.974 -219.127
lowerback 8.15071 0.922458 -0.417196
upperback 1.66797 1.05861 -2.14297
thorax -2.80966 0.497469 -2.08923
lowerneck 7.68959 -1.53046 -2.72718
upperneck -33.6391 0.902743 17.8491
head -12.4568 -2.11774 7.58474
rclavicle 4.86401e-015 -6.08778e-015
rhumerus -15.9753 -44.486 -27.7032
rradius 78.9139
rwrist -88.0726
rhand -5.96138 -10.4163
rfingers 7.12502
rthumb 19.8695 -39.4206
lclavicle 4.86401e-015 -6.08778e-015
lhumerus 5.49682 49.2142 41.7905
lradius 85.0541
lwrist 121.142
lhand -14.2702 17.2544
lfingers 7.12502
lthumb 11.8685 46.8981
rfemur -47.2687 -17.9803 4.80639
rtibia 88.2712
rfoot 19.5055 -1.63191
rtoes 10.4714
lfemur 13.6502 16.8114 -25.1734
ltibia -1.59028e-015
lfoot -9.13722 4.35881
ltoes -0.291412
207
root 6.35925 16.51 -3.05697 214.099 -82.896 -219.405
lowerback 8.02722 0.902662 -0.334719
upperback 1.67901 1.03991 -2.19356
thorax -2.72773 0.487858 -2.18346
lowerneck 7.68473 -1.55034 -2.80187
upperneck -32.9126 0.954046 18.2847
head -12.1595 -2.1002 7.68911
rclavicle -3.44224e-015 8.49804e-015
rhumerus -16.2919 -43.0136 -27.8263
rradius 80.577
rwrist -88.0388
rhand -2.96598 -9.88978
rfingers 7.12502
rthumb 22.7466 -38.5689
lclavicle -3.44224e-015 8.49804e-015
lhumerus 4.86455 48.2301 41.7817
lradius 87.0152
lwrist 121.161
lhand -11.5959 17.9341
lfingers 7.12502
lthumb 14.4464 47.4113
rfemur -47.2509 -17.8348 4.54405
rtibia 88.2134
rfoot 19.6927 -1.58603
rtoes 10.414
lfemur 13.766 16.9077 -25.2343
ltibia -9.54166e-015
lfoot -9.15422 4.25642
ltoes -0.296693
208
root 6.34194 16.5025 -3.05159 215.259 -82.7876 -220.594
lowerback 7.83762 0.86957 -0.390335
upperback 1.69952 0.991667 -2.27195
thorax -2.60238 0.464352 -2.22439
lowerneck 7.54255 -1.59665 -2.81762
upperneck -32.0253 0.942625 18.679
head -11.7636 -2.09925 7.74621
rclavicle 1.26663e-014 -5.66536e-015
rhumerus -16.5623 -41.489 -27.9728
rradius 82.2176
rwrist -87.9175
rhand 0.0817119 -9.5877
rfingers 7.12502
rthumb 25.6686 -37.8772
lclavicle 1.26663e-014 -5.66536e-015
lhumerus 4.22152 47.2194 41.7154
lradius 88.9017
lwrist 121.113
lhand -9.00703 18.5961
lfingers 7.12502
lthumb 16.9397 47.8774
rfemur -47.2024 -17.6625 4.16051
rtibia 88.0493
rfoot 19.862 -1.52274
rtoes 10.2955
lfemur 13.8313 16.961 -25.4233
ltibia -2.70347e-014
lfoot -9.16071 4.17176
ltoes -0.30301
209
root 6.32177 16.4962 -3.04592 215.813 -82.7279 -221.201
lowerback 7.63547 0.832572 -0.346696
upperback 1.73203 0.948459 -2.32188
thorax -2.45632 0.443213 -2.2921
lowerneck 7.37321 -1.68097 -2.82567
upperneck -31.0543 0.858357 19.0617
head -11.3261 -2.12213 7.79364
rclavicle 1.05752e-014 1.85367e-014
rhumerus -16.7334 -39.9551 -28.1429
rradius 83.7244
rwrist -87.8538
rhand 3.19032 -9.1622
rfingers 7.12502
rthumb 28.6424 -36.9869
lclavicle 1.05752e-014 1.85367e-014
lhumerus 3.53643 46.1486 41.615
lradius 90.7753
lwrist 120.997
lhand -6.53671 19.2038
lfingers 7.12502
lthumb 19.3163 48.2644
rfemur -47.0112 -17.4627 3.83806
rtibia 87.7489
rfoot 19.93 -1.30032
rtoes 10.0025
lfemur 13.9597 17.0148 -25.5053
ltibia -6.36111e-015
lfoot -9.21162 4.07505
ltoes -0.245732
210
root 6.30188 16.488 -3.04123 216.677 -82.6635 -222.112
lowerback 7.43271 0.785791 -0.332185
upperback 1.75492 0.889436 -2.38082
thorax -2.32094 0.414285 -2.35167
lowerneck 7.30683 -1.71236 -2.87213
upperneck -30.1398 0.849626 19.472
head -10.9533 -2.11325 7.86557
rclavicle -6.42789e-015 -4.89507e-015
rhumerus -17.051 -38.166 -28.2251
rradius 85.3741
rwrist -87.6743
rhand 5.80881 -8.64637
rfingers 7.12502
rthumb 31.1411 -36.0209
lclavicle -6.42789e-015 -4.89507e-015
lhumerus 2.83028 44.982 41.4836
lradius 92.5985
lwrist 120.789
lhand -4.06404 19.8342
lfingers 7.12502
lthumb 21.6925 48.6388
rfemur -46.7408 -17.1879 3.46697
rtibia 87.3247
rfoot 19.9771 -1.16756
rtoes 9.62498
lfemur 14.0683 17.0478 -25.6282
ltibia 1.90833e-014
lfoot -9.22473 4.00519
ltoes -0.403827
